<svg width="900" height="500" fill="none" xmlns="http://www.w3.org/2000/svg">
<rect width="900" height="500" fill="#101010"/>
<path d="M166.347 253.176C162.893 253.176 160.031 252.481 157.763 251.088C155.546 249.696 153.793 247.84 152.504 245.519C151.164 243.251 150.236 240.621 149.72 237.631C149.205 234.588 148.947 231.443 148.947 228.194V225.874C148.947 222.677 149.205 219.583 149.72 216.593C150.288 213.602 151.241 210.947 152.582 208.626C153.871 206.306 155.623 204.45 157.84 203.058C160.057 201.665 162.867 200.969 166.269 200.969C168.589 200.969 170.729 201.382 172.688 202.207C174.647 202.981 176.323 204.038 177.715 205.378C179.106 206.719 180.164 208.317 180.885 210.174C181.607 212.03 181.916 213.989 181.813 216.051H202.074C202.177 211.101 201.352 206.642 199.6 202.671C197.847 198.649 195.398 195.22 192.253 192.385C189.057 189.6 185.267 187.435 180.885 185.887C176.503 184.34 171.734 183.567 166.579 183.567C160.134 183.567 154.463 184.676 149.566 186.893C144.72 189.11 140.647 192.126 137.347 195.942C134.048 199.758 131.573 204.244 129.923 209.4C128.274 214.505 127.449 219.996 127.449 225.874V228.194C127.449 234.073 128.274 239.59 129.923 244.746C131.625 249.851 134.125 254.311 137.425 258.126C140.673 261.942 144.745 264.958 149.643 267.176C154.541 269.342 160.238 270.424 166.733 270.424C171.528 270.424 176.065 269.676 180.344 268.181C184.674 266.635 188.464 264.52 191.712 261.839C194.959 259.158 197.512 255.961 199.368 252.249C201.275 248.536 202.177 244.514 202.074 240.183H181.813C181.916 242.142 181.555 243.921 180.73 245.519C179.957 247.118 178.849 248.485 177.405 249.619C175.962 250.753 174.286 251.63 172.379 252.249C170.471 252.867 168.461 253.176 166.347 253.176ZM263.862 164.618H242.364V185.114H223.263V200.969H242.364V239.023C242.364 244.54 243.086 249.283 244.529 253.254C245.973 257.173 248.035 260.395 250.716 262.922C253.345 265.5 256.516 267.408 260.228 268.645C263.991 269.831 268.167 270.424 272.755 270.424C275.127 270.424 277.524 270.295 279.947 270.037C282.422 269.831 284.793 269.522 287.062 269.11C289.33 268.697 291.47 268.181 293.48 267.562C295.491 266.892 297.244 266.119 298.739 265.242L296.651 250.469C295.672 250.727 294.486 250.985 293.094 251.243C291.753 251.501 290.31 251.733 288.763 251.939C287.165 252.197 285.489 252.403 283.737 252.558C282.035 252.712 280.36 252.79 278.71 252.79C276.441 252.79 274.379 252.532 272.523 252.017C270.719 251.501 269.172 250.624 267.884 249.387C266.595 248.201 265.589 246.602 264.867 244.592C264.197 242.529 263.862 239.976 263.862 236.935V200.969H295.104V185.114H263.862V164.618ZM379.628 183.567C374.009 183.567 368.827 184.933 364.084 187.667C359.341 190.348 355.269 194.06 351.866 198.804L351.711 196.948L350.86 185.114H330.832V268.8H352.33V218.526C353.309 216.155 354.547 214.092 356.042 212.339C357.537 210.586 359.341 209.142 361.455 208.008C363.208 207.028 365.193 206.306 367.41 205.842C369.678 205.326 372.204 205.069 374.988 205.069C377.669 205.069 380.479 205.249 383.417 205.61C386.408 205.919 389.32 206.41 392.156 207.08L395.326 185.656C393.625 185.14 391.383 184.676 388.598 184.263C385.866 183.799 382.876 183.567 379.628 183.567ZM419.144 150V167.557H444.2V251.32H419.144V268.8H489.904V251.32H465.93V150H419.144ZM553.779 208.394V175.523H539.472V208.394H508.078V222.626H539.472V257.508H553.779V222.626H585.253V208.394H553.779ZM635.982 268.8H646.887L680.991 185.114H666.374L642.944 248.226L641.552 253.408L640.236 248.226L616.265 185.114H601.572L635.982 268.8ZM772.011 280.479V268.8H701.098V280.479H772.011Z" fill="white"/>
<path d="M149.176 332.2C148.344 333.512 146.984 334.744 145.096 335.896C143.24 337.048 141.08 337.624 138.616 337.624C136.312 337.624 134.408 337.128 132.904 336.136C131.432 335.144 130.36 333.848 129.688 332.248C129.016 330.648 128.68 328.904 128.68 327.016C128.68 323.816 129.32 320.904 130.6 318.28C131.912 315.624 133.688 313.528 135.928 311.992C138.168 310.456 140.664 309.688 143.416 309.688C145.88 309.688 147.704 310.264 148.888 311.416C150.104 312.536 150.712 314.008 150.712 315.832C150.712 318.136 149.88 320.056 148.216 321.592C146.552 323.128 144.552 324.28 142.216 325.048C139.88 325.784 137.672 326.184 135.592 326.248C135.528 328.552 135.896 330.408 136.696 331.816C137.528 333.224 138.776 333.928 140.44 333.928C143.192 333.928 145.688 332.648 147.928 330.088L149.176 332.2ZM141.976 312.664C140.088 312.664 138.6 313.8 137.512 316.072C136.424 318.344 135.784 320.872 135.592 323.656C136.84 323.592 138.152 323.256 139.528 322.648C140.936 322.04 142.104 321.192 143.032 320.104C143.992 318.984 144.472 317.704 144.472 316.264C144.472 315.112 144.248 314.232 143.8 313.624C143.384 312.984 142.776 312.664 141.976 312.664ZM174.926 332.104C174.894 332.232 174.878 332.424 174.878 332.68C174.878 333.512 175.198 333.928 175.838 333.928C176.35 333.928 177.07 333.544 177.998 332.776L178.67 334.264C178.254 334.904 177.502 335.608 176.414 336.376C175.358 337.112 174.126 337.48 172.718 337.48C171.63 337.48 170.766 337.24 170.126 336.76C169.486 336.28 169.15 335.544 169.118 334.552L169.214 333.736C168.318 334.792 167.23 335.688 165.95 336.424C164.67 337.128 163.262 337.48 161.726 337.48C159.038 337.48 157.022 336.568 155.678 334.744C154.366 332.888 153.71 330.472 153.71 327.496C153.71 324.552 154.318 321.72 155.534 319C156.782 316.28 158.59 314.056 160.958 312.328C163.326 310.6 166.142 309.736 169.406 309.736C170.238 309.736 171.134 309.832 172.094 310.024C173.086 310.216 173.95 310.44 174.686 310.696L177.998 309.736L174.926 332.104ZM171.23 313.144C170.622 312.856 169.838 312.712 168.878 312.712C166.958 312.712 165.358 313.448 164.078 314.92C162.798 316.36 161.854 318.2 161.246 320.44C160.67 322.648 160.382 324.888 160.382 327.16C160.382 329.272 160.702 330.92 161.342 332.104C161.982 333.256 162.926 333.832 164.174 333.832C164.974 333.832 165.774 333.56 166.574 333.016C167.406 332.472 168.142 331.832 168.782 331.096L171.23 313.144ZM198.49 314.92C198.106 314.472 197.466 314.008 196.57 313.528C195.706 313.048 194.698 312.808 193.546 312.808C192.266 312.808 191.226 313.096 190.426 313.672C189.658 314.216 189.274 315.032 189.274 316.12C189.274 317.08 189.594 317.944 190.234 318.712C190.906 319.448 191.978 320.344 193.45 321.4C195.082 322.616 196.33 323.8 197.194 324.952C198.058 326.072 198.49 327.512 198.49 329.272C198.49 331.032 198.01 332.536 197.05 333.784C196.09 335 194.81 335.928 193.21 336.568C191.61 337.176 189.85 337.48 187.93 337.48C186.49 337.48 185.018 337.32 183.514 337C182.01 336.648 181.034 336.28 180.586 335.896L181.546 331.816C182.218 332.392 183.13 332.936 184.282 333.448C185.434 333.96 186.634 334.216 187.882 334.216C189.066 334.216 190.074 333.944 190.906 333.4C191.77 332.856 192.202 332.008 192.202 330.856C192.202 329.864 191.834 328.968 191.098 328.168C190.362 327.368 189.258 326.456 187.786 325.432C186.442 324.504 185.306 323.416 184.378 322.168C183.482 320.888 183.034 319.352 183.034 317.56C183.034 316.024 183.466 314.664 184.33 313.48C185.226 312.296 186.442 311.384 187.978 310.744C189.546 310.072 191.338 309.736 193.354 309.736C194.538 309.736 195.738 309.832 196.954 310.024C198.17 310.216 198.986 310.424 199.402 310.648L198.49 314.92ZM210.382 332.2C210.35 332.36 210.334 332.552 210.334 332.776C210.334 333.544 210.606 333.928 211.15 333.928C211.438 333.928 211.758 333.832 212.11 333.64C212.462 333.448 212.91 333.128 213.454 332.68L214.078 334.168C213.534 334.904 212.718 335.64 211.63 336.376C210.574 337.112 209.278 337.48 207.742 337.48C206.494 337.48 205.518 337.24 204.814 336.76C204.11 336.248 203.758 335.56 203.758 334.696L203.806 334.216C203.998 332.552 204.654 327.72 205.774 319.72L206.542 314.152L203.71 312.808L204.046 310.936L212.302 309.784L213.454 310.312L210.382 332.2ZM210.91 305.176C210.046 305.176 209.294 304.856 208.654 304.216C208.046 303.544 207.742 302.776 207.742 301.912C207.742 300.728 208.126 299.736 208.894 298.936C209.694 298.136 210.702 297.736 211.918 297.736C212.91 297.736 213.694 298.056 214.27 298.696C214.846 299.304 215.134 300.04 215.134 300.904C215.134 302.12 214.766 303.144 214.03 303.976C213.294 304.776 212.254 305.176 210.91 305.176ZM225.227 332.2C225.195 332.328 225.179 332.504 225.179 332.728C225.179 333.528 225.467 333.928 226.043 333.928C226.331 333.928 226.635 333.848 226.955 333.688C227.307 333.528 227.771 333.192 228.347 332.68L228.971 334.168C228.459 334.904 227.707 335.64 226.715 336.376C225.723 337.112 224.443 337.48 222.875 337.48C221.659 337.48 220.667 337.24 219.899 336.76C219.131 336.248 218.731 335.464 218.699 334.408C218.699 334.28 218.763 333.704 218.891 332.68L223.067 302.008L220.043 301.048L220.475 299.272L228.635 298.312L229.739 298.936L225.227 332.2ZM234.236 314.92C234.108 314.376 233.964 314.008 233.804 313.816C233.644 313.592 233.436 313.48 233.18 313.48C232.764 313.48 232.284 313.704 231.74 314.152L231.068 312.52C231.452 312.008 232.172 311.432 233.228 310.792C234.316 310.12 235.468 309.784 236.684 309.784C237.932 309.784 238.86 310.056 239.468 310.6C240.076 311.112 240.46 311.912 240.62 313L243.404 331.24L244.076 336.52L246.332 331.96C247.708 329.08 248.748 326.552 249.452 324.376C250.188 322.2 250.556 320.12 250.556 318.136C250.556 317.528 250.508 317.016 250.412 316.6C250.316 316.184 250.172 315.704 249.98 315.16C249.628 314.264 249.452 313.416 249.452 312.616C249.452 311.752 249.708 311.064 250.22 310.552C250.764 310.04 251.532 309.784 252.524 309.784C253.676 309.784 254.572 310.232 255.212 311.128C255.884 312.024 256.22 313.112 256.22 314.392C256.22 316.664 255.852 318.824 255.116 320.872C254.38 322.888 253.26 325.4 251.756 328.408C250.7 330.712 249.324 333.272 247.628 336.088C245.964 338.872 244.492 341.224 243.212 343.144C241.9 345.224 240.492 346.728 238.988 347.656C237.516 348.584 235.756 349.048 233.708 349.048C232.876 349.048 231.964 348.936 230.972 348.712C230.012 348.52 229.356 348.312 229.004 348.088L230.492 343.912C230.844 344.232 231.436 344.52 232.268 344.776C233.1 345.032 233.916 345.16 234.716 345.16C236.156 345.16 237.532 344.648 238.844 343.624C240.188 342.632 241.516 341 242.828 338.728H239.372L234.236 314.92ZM286.099 314.92C285.715 314.472 285.075 314.008 284.179 313.528C283.315 313.048 282.307 312.808 281.155 312.808C279.875 312.808 278.835 313.096 278.035 313.672C277.267 314.216 276.883 315.032 276.883 316.12C276.883 317.08 277.203 317.944 277.843 318.712C278.515 319.448 279.587 320.344 281.059 321.4C282.691 322.616 283.939 323.8 284.803 324.952C285.667 326.072 286.099 327.512 286.099 329.272C286.099 331.032 285.619 332.536 284.659 333.784C283.699 335 282.419 335.928 280.819 336.568C279.219 337.176 277.459 337.48 275.539 337.48C274.099 337.48 272.627 337.32 271.123 337C269.619 336.648 268.643 336.28 268.195 335.896L269.155 331.816C269.827 332.392 270.739 332.936 271.891 333.448C273.043 333.96 274.243 334.216 275.491 334.216C276.675 334.216 277.683 333.944 278.515 333.4C279.379 332.856 279.811 332.008 279.811 330.856C279.811 329.864 279.443 328.968 278.707 328.168C277.971 327.368 276.867 326.456 275.395 325.432C274.051 324.504 272.915 323.416 271.987 322.168C271.091 320.888 270.643 319.352 270.643 317.56C270.643 316.024 271.075 314.664 271.939 313.48C272.835 312.296 274.051 311.384 275.587 310.744C277.155 310.072 278.947 309.736 280.963 309.736C282.147 309.736 283.347 309.832 284.563 310.024C285.779 310.216 286.595 310.424 287.011 310.648L286.099 314.92ZM299.432 315.88C300.616 314.024 302.024 312.536 303.656 311.416C305.32 310.296 307.08 309.736 308.936 309.736C310.824 309.736 312.28 310.28 313.304 311.368C314.36 312.456 314.888 314.264 314.888 316.792C314.888 317.784 314.696 319.352 314.312 321.496C313.96 323.64 313.768 324.856 313.736 325.144L313.448 326.68C313.256 327.736 313.064 328.824 312.872 329.944C312.712 331.064 312.632 331.976 312.632 332.68C312.632 333.544 312.904 333.976 313.448 333.976C313.736 333.976 314.04 333.896 314.36 333.736C314.68 333.544 315.128 333.224 315.704 332.776L316.328 334.264C315.912 334.904 315.144 335.608 314.024 336.376C312.904 337.112 311.56 337.48 309.992 337.48C308.424 337.48 307.352 337.176 306.776 336.568C306.2 335.928 305.912 335.032 305.912 333.88C305.944 332.92 306.248 331.016 306.824 328.168L307.112 326.536C307.176 326.248 307.304 325.48 307.496 324.232C307.72 322.984 307.896 321.8 308.024 320.68C308.152 319.528 308.216 318.536 308.216 317.704C308.216 316.232 308.04 315.224 307.688 314.68C307.336 314.136 306.744 313.864 305.912 313.864C304.824 313.864 303.608 314.488 302.264 315.736C300.952 316.952 299.832 318.44 298.904 320.2L296.792 337H290.408L294.776 302.008L291.896 301.048L292.232 299.272L300.44 298.312L301.592 298.936L299.432 315.88ZM341.145 332.104C341.113 332.232 341.097 332.424 341.097 332.68C341.097 333.512 341.417 333.928 342.057 333.928C342.569 333.928 343.289 333.544 344.217 332.776L344.889 334.264C344.473 334.904 343.721 335.608 342.633 336.376C341.577 337.112 340.345 337.48 338.937 337.48C337.849 337.48 336.985 337.24 336.345 336.76C335.705 336.28 335.369 335.544 335.337 334.552L335.433 333.736C334.537 334.792 333.449 335.688 332.169 336.424C330.889 337.128 329.481 337.48 327.945 337.48C325.257 337.48 323.241 336.568 321.897 334.744C320.585 332.888 319.929 330.472 319.929 327.496C319.929 324.552 320.537 321.72 321.753 319C323.001 316.28 324.809 314.056 327.177 312.328C329.545 310.6 332.361 309.736 335.625 309.736C336.457 309.736 337.353 309.832 338.313 310.024C339.305 310.216 340.169 310.44 340.905 310.696L344.217 309.736L341.145 332.104ZM337.449 313.144C336.841 312.856 336.057 312.712 335.097 312.712C333.177 312.712 331.577 313.448 330.297 314.92C329.017 316.36 328.073 318.2 327.465 320.44C326.889 322.648 326.601 324.888 326.601 327.16C326.601 329.272 326.921 330.92 327.561 332.104C328.201 333.256 329.145 333.832 330.393 333.832C331.193 333.832 331.993 333.56 332.793 333.016C333.625 332.472 334.361 331.832 335.001 331.096L337.449 313.144ZM357.317 316.648C357.925 314.824 358.965 313.224 360.437 311.848C361.941 310.44 363.621 309.736 365.477 309.736C366.117 309.736 366.661 309.88 367.109 310.168L365.717 317.08C365.525 316.92 365.205 316.776 364.757 316.648C364.341 316.488 363.829 316.408 363.221 316.408C362.069 316.408 360.965 316.664 359.909 317.176C358.853 317.656 358.037 318.36 357.461 319.288L355.109 337H348.869L351.893 314.2L349.445 312.856L349.781 310.936L356.645 309.784L357.749 310.456L357.509 314.824L357.317 316.648ZM388.473 332.2C387.641 333.512 386.281 334.744 384.393 335.896C382.537 337.048 380.377 337.624 377.913 337.624C375.609 337.624 373.705 337.128 372.201 336.136C370.729 335.144 369.657 333.848 368.985 332.248C368.313 330.648 367.977 328.904 367.977 327.016C367.977 323.816 368.617 320.904 369.897 318.28C371.209 315.624 372.985 313.528 375.225 311.992C377.465 310.456 379.961 309.688 382.713 309.688C385.177 309.688 387.001 310.264 388.185 311.416C389.401 312.536 390.009 314.008 390.009 315.832C390.009 318.136 389.177 320.056 387.513 321.592C385.849 323.128 383.849 324.28 381.513 325.048C379.177 325.784 376.969 326.184 374.889 326.248C374.825 328.552 375.193 330.408 375.993 331.816C376.825 333.224 378.073 333.928 379.737 333.928C382.489 333.928 384.985 332.648 387.225 330.088L388.473 332.2ZM381.273 312.664C379.385 312.664 377.897 313.8 376.809 316.072C375.721 318.344 375.081 320.872 374.889 323.656C376.137 323.592 377.449 323.256 378.825 322.648C380.233 322.04 381.401 321.192 382.329 320.104C383.289 318.984 383.769 317.704 383.769 316.264C383.769 315.112 383.545 314.232 383.097 313.624C382.681 312.984 382.073 312.664 381.273 312.664ZM421.726 316.888C420.83 315.768 420.03 314.872 419.326 314.2C418.654 313.496 418.062 313.144 417.55 313.144C416.366 313.144 415.262 313.688 414.238 314.776C413.246 315.864 412.43 317.384 411.79 319.336C411.182 321.288 410.878 323.48 410.878 325.912C410.878 328.568 411.262 330.52 412.03 331.768C412.798 332.984 413.966 333.592 415.534 333.592C416.878 333.592 418.014 333.336 418.942 332.824C419.902 332.312 420.83 331.592 421.726 330.664L422.974 332.776C422.174 333.96 420.91 335.048 419.182 336.04C417.486 337 415.47 337.48 413.134 337.48C410.382 337.48 408.222 336.52 406.654 334.6C405.086 332.648 404.302 329.896 404.302 326.344C404.302 323.656 404.862 321.048 405.982 318.52C407.102 315.96 408.766 313.864 410.974 312.232C413.182 310.568 415.838 309.736 418.942 309.736C419.934 309.736 420.958 309.832 422.014 310.024C423.102 310.184 423.982 310.424 424.654 310.744L423.022 316.984L421.726 316.888ZM441.022 309.688C444.35 309.688 446.894 310.664 448.654 312.616C450.414 314.536 451.294 317.304 451.294 320.92C451.294 323.896 450.686 326.664 449.47 329.224C448.254 331.784 446.542 333.832 444.334 335.368C442.126 336.872 439.598 337.624 436.75 337.624C433.422 337.624 430.878 336.648 429.118 334.696C427.39 332.712 426.526 329.896 426.526 326.248C426.526 323.24 427.118 320.472 428.302 317.944C429.518 315.416 431.23 313.416 433.438 311.944C435.646 310.44 438.174 309.688 441.022 309.688ZM440.206 312.712C438.734 312.712 437.486 313.384 436.462 314.728C435.438 316.04 434.67 317.72 434.158 319.768C433.678 321.816 433.438 323.912 433.438 326.056C433.438 329.096 433.774 331.32 434.446 332.728C435.15 334.136 436.238 334.84 437.71 334.84C439.15 334.84 440.366 334.168 441.358 332.824C442.35 331.48 443.086 329.768 443.566 327.688C444.046 325.608 444.286 323.48 444.286 321.304C444.286 318.264 443.95 316.072 443.278 314.728C442.638 313.384 441.614 312.712 440.206 312.712ZM476.296 332.152C476.264 332.28 476.248 332.472 476.248 332.728C476.248 333.528 476.52 333.928 477.064 333.928C477.608 333.928 478.328 333.56 479.224 332.824L479.896 334.312C478.104 336.424 476.12 337.48 473.944 337.48C472.824 337.48 471.976 337.208 471.4 336.664C470.824 336.12 470.488 335.288 470.392 334.168V333.448C469.592 334.568 468.52 335.528 467.176 336.328C465.832 337.096 464.296 337.48 462.568 337.48C459.88 337.48 457.88 336.568 456.568 334.744C455.256 332.888 454.6 330.472 454.6 327.496C454.6 324.52 455.192 321.672 456.376 318.952C457.56 316.232 459.32 314.024 461.656 312.328C464.024 310.6 466.872 309.736 470.2 309.736C471.128 309.736 472.104 309.864 473.128 310.12L474.328 302.008L470.872 301.048L471.304 299.272L479.944 298.312L481.144 298.936L476.296 332.152ZM472.648 313.384C471.848 312.936 470.84 312.712 469.624 312.712C467.672 312.712 466.072 313.464 464.824 314.968C463.576 316.44 462.664 318.28 462.088 320.488C461.512 322.696 461.224 324.936 461.224 327.208C461.224 329.32 461.544 330.952 462.184 332.104C462.856 333.256 463.8 333.832 465.016 333.832C466.008 333.832 466.952 333.528 467.848 332.92C468.744 332.28 469.48 331.528 470.056 330.664L472.648 313.384ZM503.973 332.2C503.141 333.512 501.781 334.744 499.893 335.896C498.037 337.048 495.877 337.624 493.413 337.624C491.109 337.624 489.205 337.128 487.701 336.136C486.229 335.144 485.157 333.848 484.485 332.248C483.813 330.648 483.477 328.904 483.477 327.016C483.477 323.816 484.117 320.904 485.397 318.28C486.709 315.624 488.485 313.528 490.725 311.992C492.965 310.456 495.461 309.688 498.213 309.688C500.677 309.688 502.501 310.264 503.685 311.416C504.901 312.536 505.509 314.008 505.509 315.832C505.509 318.136 504.677 320.056 503.013 321.592C501.349 323.128 499.349 324.28 497.013 325.048C494.677 325.784 492.469 326.184 490.389 326.248C490.325 328.552 490.693 330.408 491.493 331.816C492.325 333.224 493.573 333.928 495.237 333.928C497.989 333.928 500.485 332.648 502.725 330.088L503.973 332.2ZM496.773 312.664C494.885 312.664 493.397 313.8 492.309 316.072C491.221 318.344 490.581 320.872 490.389 323.656C491.637 323.592 492.949 323.256 494.325 322.648C495.733 322.04 496.901 321.192 497.829 320.104C498.789 318.984 499.269 317.704 499.269 316.264C499.269 315.112 499.045 314.232 498.597 313.624C498.181 312.984 497.573 312.664 496.773 312.664ZM536.506 314.92C536.122 314.472 535.482 314.008 534.586 313.528C533.722 313.048 532.714 312.808 531.562 312.808C530.282 312.808 529.242 313.096 528.442 313.672C527.674 314.216 527.29 315.032 527.29 316.12C527.29 317.08 527.61 317.944 528.25 318.712C528.922 319.448 529.994 320.344 531.466 321.4C533.098 322.616 534.346 323.8 535.21 324.952C536.074 326.072 536.506 327.512 536.506 329.272C536.506 331.032 536.026 332.536 535.066 333.784C534.106 335 532.826 335.928 531.226 336.568C529.626 337.176 527.866 337.48 525.946 337.48C524.506 337.48 523.034 337.32 521.53 337C520.026 336.648 519.05 336.28 518.602 335.896L519.562 331.816C520.234 332.392 521.146 332.936 522.298 333.448C523.45 333.96 524.65 334.216 525.898 334.216C527.082 334.216 528.09 333.944 528.922 333.4C529.786 332.856 530.218 332.008 530.218 330.856C530.218 329.864 529.85 328.968 529.114 328.168C528.378 327.368 527.274 326.456 525.802 325.432C524.458 324.504 523.322 323.416 522.394 322.168C521.498 320.888 521.05 319.352 521.05 317.56C521.05 316.024 521.482 314.664 522.346 313.48C523.242 312.296 524.458 311.384 525.994 310.744C527.562 310.072 529.354 309.736 531.37 309.736C532.554 309.736 533.754 309.832 534.97 310.024C536.186 310.216 537.002 310.424 537.418 310.648L536.506 314.92ZM550.222 315.544C551.406 313.784 552.814 312.376 554.446 311.32C556.078 310.264 557.79 309.736 559.582 309.736C563.55 309.736 565.534 312.088 565.534 316.792C565.534 318.04 565.134 320.824 564.334 325.144C564.206 325.976 564.094 326.616 563.998 327.064C563.55 329.592 563.31 331.416 563.278 332.536V332.728C563.278 333.528 563.534 333.928 564.046 333.928C564.334 333.928 564.638 333.848 564.958 333.688C565.278 333.528 565.694 333.24 566.206 332.824L566.878 334.312C566.398 334.984 565.614 335.688 564.526 336.424C563.438 337.128 562.11 337.48 560.542 337.48C559.038 337.48 557.998 337.16 557.422 336.52C556.846 335.848 556.558 334.968 556.558 333.88C556.59 332.92 556.894 331.016 557.47 328.168L557.758 326.536C557.822 326.248 557.95 325.48 558.142 324.232C558.366 322.984 558.542 321.8 558.67 320.68C558.798 319.528 558.862 318.536 558.862 317.704C558.862 316.232 558.686 315.224 558.334 314.68C558.014 314.136 557.422 313.864 556.558 313.864C555.502 313.864 554.318 314.456 553.006 315.64C551.726 316.824 550.622 318.248 549.694 319.912L547.39 337H541.102L544.174 314.152L541.726 312.856L542.11 310.888L549.598 309.736L550.702 310.264L550.222 315.544ZM578.632 332.2C578.6 332.36 578.584 332.552 578.584 332.776C578.584 333.544 578.856 333.928 579.4 333.928C579.688 333.928 580.008 333.832 580.36 333.64C580.712 333.448 581.16 333.128 581.704 332.68L582.328 334.168C581.784 334.904 580.968 335.64 579.88 336.376C578.824 337.112 577.528 337.48 575.992 337.48C574.744 337.48 573.768 337.24 573.064 336.76C572.36 336.248 572.008 335.56 572.008 334.696L572.056 334.216C572.248 332.552 572.904 327.72 574.024 319.72L574.792 314.152L571.96 312.808L572.296 310.936L580.552 309.784L581.704 310.312L578.632 332.2ZM579.16 305.176C578.296 305.176 577.544 304.856 576.904 304.216C576.296 303.544 575.992 302.776 575.992 301.912C575.992 300.728 576.376 299.736 577.144 298.936C577.944 298.136 578.952 297.736 580.168 297.736C581.16 297.736 581.944 298.056 582.52 298.696C583.096 299.304 583.384 300.04 583.384 300.904C583.384 302.12 583.016 303.144 582.28 303.976C581.544 304.776 580.504 305.176 579.16 305.176ZM595.925 312.904C596.757 311.976 597.765 311.224 598.949 310.648C600.133 310.04 601.429 309.736 602.837 309.736C605.493 309.736 607.509 310.632 608.885 312.424C610.261 314.216 610.949 316.712 610.949 319.912C610.949 322.952 610.309 325.816 609.029 328.504C607.749 331.192 605.925 333.368 603.557 335.032C601.221 336.664 598.517 337.48 595.445 337.48C594.613 337.48 593.669 337.368 592.613 337.144L590.933 349.192H584.789L589.541 314.008L586.997 312.808L587.381 310.888L595.157 309.736L596.261 310.264L595.925 312.904ZM593.045 333.928C593.781 334.312 594.789 334.504 596.069 334.504C597.893 334.504 599.413 333.8 600.629 332.392C601.877 330.984 602.789 329.176 603.365 326.968C603.973 324.76 604.277 322.44 604.277 320.008C604.277 318.024 603.941 316.424 603.269 315.208C602.629 313.992 601.685 313.384 600.437 313.384C599.445 313.384 598.533 313.688 597.701 314.296C596.869 314.872 596.133 315.592 595.493 316.456L593.045 333.928ZM624.05 312.904C624.882 311.976 625.89 311.224 627.074 310.648C628.258 310.04 629.554 309.736 630.962 309.736C633.618 309.736 635.634 310.632 637.01 312.424C638.386 314.216 639.074 316.712 639.074 319.912C639.074 322.952 638.434 325.816 637.154 328.504C635.874 331.192 634.05 333.368 631.682 335.032C629.346 336.664 626.642 337.48 623.57 337.48C622.738 337.48 621.794 337.368 620.738 337.144L619.058 349.192H612.914L617.666 314.008L615.122 312.808L615.506 310.888L623.282 309.736L624.386 310.264L624.05 312.904ZM621.17 333.928C621.906 334.312 622.914 334.504 624.194 334.504C626.018 334.504 627.538 333.8 628.754 332.392C630.002 330.984 630.914 329.176 631.49 326.968C632.098 324.76 632.402 322.44 632.402 320.008C632.402 318.024 632.066 316.424 631.394 315.208C630.754 313.992 629.81 313.384 628.562 313.384C627.57 313.384 626.658 313.688 625.826 314.296C624.994 314.872 624.258 315.592 623.618 316.456L621.17 333.928ZM662.879 332.2C662.047 333.512 660.687 334.744 658.799 335.896C656.943 337.048 654.783 337.624 652.319 337.624C650.015 337.624 648.111 337.128 646.607 336.136C645.135 335.144 644.063 333.848 643.391 332.248C642.719 330.648 642.383 328.904 642.383 327.016C642.383 323.816 643.023 320.904 644.303 318.28C645.615 315.624 647.391 313.528 649.631 311.992C651.871 310.456 654.367 309.688 657.119 309.688C659.583 309.688 661.407 310.264 662.591 311.416C663.807 312.536 664.415 314.008 664.415 315.832C664.415 318.136 663.583 320.056 661.919 321.592C660.255 323.128 658.255 324.28 655.919 325.048C653.583 325.784 651.375 326.184 649.295 326.248C649.231 328.552 649.599 330.408 650.399 331.816C651.231 333.224 652.479 333.928 654.143 333.928C656.895 333.928 659.391 332.648 661.631 330.088L662.879 332.2ZM655.679 312.664C653.791 312.664 652.303 313.8 651.215 316.072C650.127 318.344 649.487 320.872 649.295 323.656C650.543 323.592 651.855 323.256 653.231 322.648C654.639 322.04 655.807 321.192 656.735 320.104C657.695 318.984 658.175 317.704 658.175 316.264C658.175 315.112 657.951 314.232 657.503 313.624C657.087 312.984 656.479 312.664 655.679 312.664ZM675.429 328.216C675.205 330.072 675.093 331.192 675.093 331.576C675.093 332.312 675.237 332.84 675.525 333.16C675.813 333.448 676.309 333.592 677.013 333.592C677.653 333.592 678.373 333.448 679.173 333.16C680.005 332.84 680.693 332.456 681.237 332.008L681.765 333.784C680.933 334.712 679.749 335.56 678.213 336.328C676.677 337.096 674.949 337.48 673.029 337.48C671.685 337.48 670.613 337.144 669.813 336.472C669.045 335.768 668.661 334.664 668.661 333.16C668.661 332.52 668.821 331.016 669.141 328.648L671.157 313.768H668.277L668.805 311.464L671.685 310.456C672.645 309.56 673.781 307.352 675.093 303.832H678.693L677.877 310.36H683.637L683.157 313.768H677.397L675.429 328.216ZM701.084 314.92C700.7 314.472 700.06 314.008 699.164 313.528C698.3 313.048 697.292 312.808 696.14 312.808C694.86 312.808 693.82 313.096 693.02 313.672C692.252 314.216 691.868 315.032 691.868 316.12C691.868 317.08 692.188 317.944 692.828 318.712C693.5 319.448 694.572 320.344 696.044 321.4C697.676 322.616 698.924 323.8 699.788 324.952C700.652 326.072 701.084 327.512 701.084 329.272C701.084 331.032 700.604 332.536 699.644 333.784C698.684 335 697.404 335.928 695.804 336.568C694.204 337.176 692.444 337.48 690.524 337.48C689.084 337.48 687.612 337.32 686.108 337C684.604 336.648 683.628 336.28 683.18 335.896L684.14 331.816C684.812 332.392 685.724 332.936 686.876 333.448C688.028 333.96 689.228 334.216 690.476 334.216C691.66 334.216 692.668 333.944 693.5 333.4C694.364 332.856 694.796 332.008 694.796 330.856C694.796 329.864 694.428 328.968 693.692 328.168C692.956 327.368 691.852 326.456 690.38 325.432C689.036 324.504 687.9 323.416 686.972 322.168C686.076 320.888 685.628 319.352 685.628 317.56C685.628 316.024 686.06 314.664 686.924 313.48C687.82 312.296 689.036 311.384 690.572 310.744C692.14 310.072 693.932 309.736 695.948 309.736C697.132 309.736 698.332 309.832 699.548 310.024C700.764 310.216 701.58 310.424 701.996 310.648L701.084 314.92Z" fill="white"/>
</svg>
