<svg width="278" height="45" fill="none" xmlns="http://www.w3.org/2000/svg">
<path d="M9.936 5.76V0.959999H13.2V5.76H9.936ZM5.856 44.688C4.8 44.688 3.808 44.544 2.88 44.256C1.92 43.968 1.088 43.488 0.384 42.816L1.968 40.608C2.48 41.056 3.04 41.36 3.648 41.52C4.256 41.68 4.864 41.76 5.472 41.76C6.592 41.76 7.616 41.328 8.544 40.464C9.472 39.632 9.936 38.576 9.936 37.296V10.992H13.2V37.104C13.2 38.576 12.848 39.888 12.144 41.04C11.44 42.192 10.528 43.088 9.408 43.728C8.288 44.368 7.104 44.688 5.856 44.688ZM31.0373 36.48C28.6373 36.48 26.4933 35.888 24.6053 34.704C22.7493 33.52 21.2933 31.952 20.2373 30C19.1813 28.016 18.6533 25.872 18.6533 23.568C18.6533 21.232 19.1813 19.088 20.2373 17.136C21.3253 15.152 22.7973 13.568 24.6533 12.384C26.5413 11.168 28.6693 10.56 31.0373 10.56C33.4373 10.56 35.5653 11.168 37.4213 12.384C39.3093 13.568 40.7813 15.152 41.8373 17.136C42.9253 19.088 43.4693 21.232 43.4693 23.568C43.4693 25.872 42.9413 28.016 41.8853 30C40.8293 31.952 39.3573 33.52 37.4693 34.704C35.6133 35.888 33.4693 36.48 31.0373 36.48ZM21.9653 23.616C21.9653 25.472 22.3653 27.168 23.1653 28.704C23.9973 30.208 25.1013 31.408 26.4773 32.304C27.8533 33.168 29.3733 33.6 31.0373 33.6C32.7013 33.6 34.2213 33.152 35.5973 32.256C36.9733 31.36 38.0773 30.144 38.9093 28.608C39.7413 27.072 40.1573 25.376 40.1573 23.52C40.1573 21.664 39.7413 19.968 38.9093 18.432C38.0773 16.896 36.9733 15.68 35.5973 14.784C34.2213 13.888 32.7013 13.44 31.0373 13.44C29.4053 13.44 27.9013 13.904 26.5253 14.832C25.1493 15.728 24.0453 16.944 23.2133 18.48C22.3813 20.016 21.9653 21.728 21.9653 23.616ZM61.4081 13.872C59.2321 13.936 57.3121 14.544 55.6481 15.696C54.0161 16.848 52.8641 18.432 52.1921 20.448V36H48.9281V10.992H52.0001V16.992C52.8641 15.232 54.0001 13.808 55.4081 12.72C56.8481 11.632 58.3681 11.024 59.9681 10.896C60.2881 10.864 60.5601 10.848 60.7841 10.848C61.0081 10.848 61.2161 10.864 61.4081 10.896V13.872ZM63.42 23.568C63.42 21.2 63.9 19.04 64.86 17.088C65.852 15.104 67.212 13.52 68.94 12.336C70.668 11.152 72.636 10.56 74.844 10.56C76.924 10.56 78.78 11.12 80.412 12.24C82.076 13.328 83.372 14.656 84.3 16.224V0.959999H87.564V32.064C87.564 32.928 87.948 33.376 88.716 33.408V36C88.076 36.096 87.58 36.128 87.228 36.096C86.524 36.064 85.916 35.808 85.404 35.328C84.924 34.816 84.684 34.24 84.684 33.6V31.152C83.692 32.784 82.348 34.08 80.652 35.04C78.956 36 77.196 36.48 75.372 36.48C73.644 36.48 72.044 36.128 70.572 35.424C69.1 34.72 67.82 33.76 66.732 32.544C65.676 31.328 64.86 29.952 64.284 28.416C63.708 26.848 63.42 25.232 63.42 23.568ZM84.3 27.408V19.68C83.884 18.528 83.212 17.488 82.284 16.56C81.356 15.6 80.3 14.848 79.116 14.304C77.964 13.728 76.812 13.44 75.66 13.44C73.868 13.44 72.3 13.936 70.956 14.928C69.644 15.888 68.62 17.152 67.884 18.72C67.148 20.256 66.78 21.872 66.78 23.568C66.78 25.36 67.18 27.024 67.98 28.56C68.812 30.096 69.932 31.328 71.34 32.256C72.748 33.152 74.332 33.6 76.092 33.6C77.18 33.6 78.316 33.328 79.5 32.784C80.716 32.208 81.772 31.456 82.668 30.528C83.596 29.6 84.14 28.56 84.3 27.408ZM92.9434 28.8C92.9434 27.264 93.3914 25.936 94.2874 24.816C95.1834 23.664 96.4154 22.768 97.9834 22.128C99.5834 21.488 101.423 21.168 103.503 21.168C104.719 21.168 105.983 21.28 107.295 21.504C108.607 21.696 109.775 21.968 110.799 22.32V20.208C110.799 18.096 110.175 16.416 108.927 15.168C107.679 13.92 105.951 13.296 103.743 13.296C102.431 13.296 101.119 13.552 99.8074 14.064C98.4954 14.544 97.1354 15.264 95.7274 16.224L94.4794 13.92C96.1114 12.8 97.7114 11.968 99.2794 11.424C100.847 10.848 102.447 10.56 104.079 10.56C107.151 10.56 109.583 11.44 111.375 13.2C113.167 14.96 114.063 17.392 114.063 20.496V32.064C114.063 32.928 114.463 33.376 115.263 33.408V36C114.559 36.096 114.063 36.128 113.775 36.096C112.975 36.064 112.367 35.808 111.951 35.328C111.535 34.848 111.311 34.336 111.279 33.792L111.231 31.968C110.111 33.408 108.655 34.528 106.863 35.328C105.071 36.096 103.247 36.48 101.391 36.48C99.7594 36.48 98.3034 36.144 97.0234 35.472C95.7434 34.768 94.7354 33.84 93.9994 32.688C93.2954 31.504 92.9434 30.208 92.9434 28.8ZM109.695 30.72C110.431 29.856 110.799 29.056 110.799 28.32V24.672C108.591 23.808 106.287 23.376 103.887 23.376C101.551 23.376 99.6634 23.84 98.2234 24.768C96.7834 25.696 96.0634 26.96 96.0634 28.56C96.0634 29.936 96.5914 31.184 97.6474 32.304C98.7354 33.424 100.239 33.984 102.159 33.984C103.727 33.984 105.183 33.68 106.527 33.072C107.903 32.464 108.959 31.68 109.695 30.72ZM142.14 36H138.876V22.032C138.876 19.088 138.428 16.944 137.532 15.6C136.668 14.224 135.324 13.536 133.5 13.536C132.22 13.536 130.956 13.856 129.708 14.496C128.46 15.104 127.356 15.952 126.396 17.04C125.468 18.096 124.796 19.312 124.38 20.688V36H121.116V10.992H124.092V16.656C125.084 14.832 126.54 13.36 128.46 12.24C130.38 11.12 132.46 10.56 134.7 10.56C136.556 10.56 138.028 11.008 139.116 11.904C140.204 12.768 140.972 14.016 141.42 15.648C141.9 17.248 142.14 19.152 142.14 21.36V36ZM162.732 36.48C160.812 36.48 159.1 36.048 157.596 35.184C156.092 34.32 154.908 33.136 154.044 31.632V36H148.428V0.959999H154.86V15.264C155.756 13.76 156.924 12.576 158.364 11.712C159.836 10.848 161.548 10.416 163.5 10.416C165.676 10.416 167.58 11.024 169.212 12.24C170.876 13.424 172.172 15.008 173.1 16.992C174.028 18.976 174.492 21.152 174.492 23.52C174.492 25.952 173.98 28.144 172.956 30.096C171.932 32.048 170.524 33.6 168.732 34.752C166.972 35.904 164.972 36.48 162.732 36.48ZM160.956 31.008C162.332 31.008 163.532 30.672 164.556 30C165.612 29.328 166.428 28.432 167.004 27.312C167.612 26.16 167.916 24.912 167.916 23.568C167.916 22.192 167.628 20.928 167.052 19.776C166.508 18.592 165.74 17.648 164.748 16.944C163.756 16.24 162.62 15.888 161.34 15.888C159.932 15.888 158.636 16.368 157.452 17.328C156.3 18.256 155.436 19.408 154.86 20.784V26.784C155.276 28.032 156.092 29.056 157.308 29.856C158.524 30.624 159.74 31.008 160.956 31.008ZM177.122 28.56C177.122 26.928 177.57 25.504 178.466 24.288C179.394 23.04 180.674 22.08 182.306 21.408C183.938 20.736 185.81 20.4 187.922 20.4C188.978 20.4 190.05 20.496 191.138 20.688C192.226 20.848 193.17 21.088 193.97 21.408V20.064C193.97 18.464 193.49 17.232 192.53 16.368C191.602 15.504 190.21 15.072 188.354 15.072C186.978 15.072 185.666 15.312 184.418 15.792C183.17 16.272 181.858 16.976 180.482 17.904L178.418 13.68C180.082 12.592 181.778 11.776 183.506 11.232C185.266 10.688 187.106 10.416 189.026 10.416C192.61 10.416 195.394 11.312 197.378 13.104C199.394 14.896 200.402 17.456 200.402 20.784V28.8C200.402 29.504 200.514 30 200.738 30.288C200.962 30.544 201.362 30.704 201.938 30.768V36C201.362 36.128 200.834 36.208 200.354 36.24C199.906 36.304 199.522 36.336 199.202 36.336C197.922 36.336 196.946 36.048 196.274 35.472C195.602 34.896 195.202 34.192 195.074 33.36L194.93 32.064C193.81 33.504 192.434 34.608 190.802 35.376C189.202 36.112 187.554 36.48 185.858 36.48C184.162 36.48 182.658 36.144 181.346 35.472C180.034 34.768 178.994 33.824 178.226 32.64C177.49 31.424 177.122 30.064 177.122 28.56ZM192.77 29.856C193.57 29.088 193.97 28.352 193.97 27.648V25.104C192.306 24.432 190.626 24.096 188.93 24.096C187.234 24.096 185.858 24.464 184.802 25.2C183.746 25.904 183.218 26.848 183.218 28.032C183.218 28.992 183.602 29.856 184.37 30.624C185.138 31.392 186.242 31.776 187.682 31.776C188.642 31.776 189.57 31.6 190.466 31.248C191.394 30.896 192.162 30.432 192.77 29.856ZM221.388 16.416C219.436 16.416 217.692 16.8 216.156 17.568C214.62 18.304 213.516 19.376 212.844 20.784V36H206.412V10.848H212.316V16.224C213.18 14.496 214.3 13.136 215.676 12.144C217.084 11.152 218.556 10.608 220.092 10.512C220.764 10.512 221.196 10.528 221.388 10.56V16.416ZM236.263 36.48C233.511 36.48 231.143 35.888 229.159 34.704C227.207 33.488 225.703 31.888 224.647 29.904C223.591 27.92 223.063 25.776 223.063 23.472C223.063 21.136 223.591 18.976 224.647 16.992C225.735 15.008 227.255 13.424 229.207 12.24C231.191 11.024 233.543 10.416 236.263 10.416C238.983 10.416 241.319 11.024 243.271 12.24C245.255 13.424 246.775 15.008 247.831 16.992C248.887 18.976 249.415 21.136 249.415 23.472C249.415 25.776 248.887 27.92 247.831 29.904C246.775 31.888 245.255 33.488 243.271 34.704C241.319 35.888 238.983 36.48 236.263 36.48ZM229.687 23.472C229.687 24.944 229.975 26.256 230.551 27.408C231.127 28.528 231.911 29.408 232.903 30.048C233.895 30.688 235.015 31.008 236.263 31.008C237.479 31.008 238.583 30.688 239.575 30.048C240.567 29.376 241.351 28.48 241.927 27.36C242.535 26.208 242.839 24.896 242.839 23.424C242.839 21.984 242.535 20.704 241.927 19.584C241.351 18.432 240.567 17.536 239.575 16.896C238.583 16.224 237.479 15.888 236.263 15.888C235.015 15.888 233.895 16.224 232.903 16.896C231.911 17.536 231.127 18.432 230.551 19.584C229.975 20.704 229.687 22 229.687 23.472ZM277.132 36H270.7V21.888C270.7 19.872 270.348 18.4 269.644 17.472C268.94 16.544 267.964 16.08 266.716 16.08C265.852 16.08 264.972 16.304 264.076 16.752C263.212 17.2 262.428 17.824 261.724 18.624C261.02 19.392 260.508 20.288 260.188 21.312V36H253.756V10.848H259.564V15.504C260.492 13.936 261.836 12.704 263.596 11.808C265.356 10.88 267.34 10.416 269.548 10.416C271.116 10.416 272.396 10.704 273.388 11.28C274.38 11.824 275.148 12.576 275.692 13.536C276.236 14.464 276.604 15.52 276.796 16.704C277.02 17.888 277.132 19.088 277.132 20.304V36Z" fill="white"/>
</svg>
