<svg width="64" height="64" viewBox="0 0 64 64" fill="none" xmlns="http://www.w3.org/2000/svg">
<path d="M22 17.5858C22.041 17.3797 22.2657 17.1743 22.3523 16.976C22.5514 16.5204 22.7599 16.0549 22.9904 15.6148C23.3759 14.8787 23.8962 14.1067 24.3958 13.4431C25.394 12.1175 26.8561 11.8308 28.3419 11.299C29.038 11.0498 29.8249 11 30.5576 11C31.2176 11 31.785 11.1439 32.4327 11.2124C34.0394 11.3824 35.4353 12.0606 36.8681 12.7704C37.5142 13.0904 38.1276 13.372 38.665 13.872C39.2032 14.3728 39.5056 14.9558 39.8276 15.603C40.54 17.0347 40.7793 18.4951 40.9394 20.088C41.1923 22.6043 40.7093 25.7057 38.4183 27.1617C37.4891 27.7522 36.5108 28.278 35.5645 28.8416C34.6222 29.4027 33.5983 29.9021 32.7968 30.671C31.4473 31.9655 30.4977 33.6897 30.4558 35.628C30.4278 36.9236 30.3468 38.3346 30.5419 39.6094C30.7043 40.67 30.5711 41.769 30.7337 42.8315C30.787 43.1793 30.6107 43.7024 30.8081 44" stroke="white" stroke-width="3" stroke-linecap="round"/>
<path d="M30.4591 50C30.3781 50 30.7007 50 30.7663 50C31.0132 50 31.1656 50.3165 31.3636 50.4775C31.6342 50.6975 31.9035 51.2012 31.9907 51.581C32.1262 52.1706 30.7362 53.3156 30.4164 52.9179C30.1238 52.5541 29.3991 52.6207 29.2304 52.1486C29.071 51.7026 29 51.448 29 50.9549C29 50.4917 29.1799 50.3057 29.576 50.1963C30.1022 50.0509 30.7636 50.191 31.3038 50.191" stroke="white" stroke-width="3" stroke-linecap="round"/>
<path d="M30 51C30.0501 51.3282 30.8527 51.6385 31 52" stroke="white" stroke-width="3" stroke-linecap="round"/>
</svg>
