<svg width="44" height="42" viewBox="0 0 44 42" fill="none" xmlns="http://www.w3.org/2000/svg">
<path fill-rule="evenodd" clip-rule="evenodd" d="M6.65264 14.2034C6.38035 13.8753 6.00629 13.911 5.70648 13.7736C5.5319 13.6938 5.25683 13.5009 5.34541 13.4136C5.97383 12.7951 5.54289 11.6188 6.52415 11.2102C10.5058 9.55022 13.8437 6.77013 17.6548 4.81363C17.9229 4.67577 18.1814 4.52077 18.448 4.38038C19.9865 3.56791 19.9867 3.56842 20.4094 5.18038C20.8445 6.83897 20.8121 6.98079 19.3519 8.05349C16.3182 10.2822 13.2717 12.4946 10.1152 14.548C9.13091 15.1886 8.08633 15.7295 6.8479 15.5983C6.51633 15.5635 6.17599 15.4942 5.87027 15.3677C5.60207 15.2564 5.27428 15.0682 5.33841 14.72C5.40528 14.3584 5.75632 14.5143 6.00079 14.5013C6.22444 14.4892 6.45315 14.4934 6.65264 14.2034" fill="white"/>
<path fill-rule="evenodd" clip-rule="evenodd" d="M16.7951 28.7289C17.267 27.3309 18.2459 26.2943 19.2811 25.2985C21.5298 23.1365 24.1091 21.3491 26.2959 19.1156C26.7186 18.6838 26.9806 18.7592 27.2914 19.342C28.1938 21.0358 27.2683 22.1982 26.2055 23.2792C24.0719 25.4489 21.8772 27.558 19.7192 29.7032C19.1599 30.2591 18.6363 30.8513 18.1082 31.4379C17.8026 31.7767 17.4474 31.7454 17.0759 31.6145C16.6916 31.479 16.6582 31.205 16.6635 30.8124C16.6726 30.1141 16.5845 29.4156 16.7951 28.7289" fill="white"/>
<path fill-rule="evenodd" clip-rule="evenodd" d="M36.9653 35.7543C36.5661 37.2442 36.1737 38.7356 35.7638 40.2222C35.6332 40.6953 35.4954 41.1953 34.842 41.1789C34.2453 41.1635 34.3362 40.645 34.1729 40.2942C33.8577 39.6175 33.8169 38.9136 33.8952 38.1971C34.2344 35.0796 34.8391 32.0307 36.235 29.1847C36.3865 28.8771 36.4708 28.5305 36.8742 28.4829C37.3299 28.4288 37.3342 28.8609 37.5408 29.0998C38.5055 30.2142 38.1914 31.3882 37.8259 32.5998C37.5117 33.643 37.2553 34.7038 36.9733 35.7564L36.9653 35.7543Z" fill="white"/>
</svg>
